<svg width="106" height="60" viewBox="0 0 106 60" fill="none" xmlns="http://www.w3.org/2000/svg">
<path d="M24.1462 21.1028H24.1433C21.7453 21.1028 19.8013 22.8304 19.8013 24.9615V24.964C19.8013 27.0951 21.7453 28.8227 24.1433 28.8227H24.1462C26.5442 28.8227 28.4882 27.0951 28.4882 24.964V24.9615C28.4882 22.8304 26.5442 21.1028 24.1462 21.1028Z" fill="#AFB1B8"/>
<path d="M56.195 19.8693C56.1882 16.9093 54.8623 14.0722 52.5074 11.979C50.1525 9.88568 46.9604 8.70667 43.6297 8.69995V8.69995C40.298 8.70533 37.1045 9.88374 34.7484 11.9772C32.3922 14.0706 31.0655 16.9084 31.0587 19.8693V36.1921C31.0587 36.1921 56.1922 33.7044 56.195 19.8718V19.8693Z" fill="#AFB1B8"/>
<path d="M11 41.5495C11.006 43.6091 11.9291 45.5828 13.5676 47.0394C15.2061 48.496 17.4267 49.317 19.7442 49.3231C22.0612 49.317 24.2814 48.4963 25.9197 47.0403C27.5581 45.5843 28.4816 43.6112 28.4884 41.552V30.1943C28.4884 30.1943 11 31.9266 11 41.5495ZM19.7442 43.5844C19.2913 43.5844 18.8486 43.4651 18.472 43.2415C18.0955 43.0179 17.802 42.7001 17.6287 42.3282C17.4554 41.9564 17.41 41.5472 17.4984 41.1525C17.5867 40.7577 17.8048 40.3951 18.125 40.1105C18.4453 39.8259 18.8533 39.6321 19.2975 39.5536C19.7416 39.4751 20.202 39.5154 20.6205 39.6694C21.0389 39.8234 21.3965 40.0843 21.6481 40.4189C21.8997 40.7535 22.034 41.147 22.034 41.5495C22.0351 41.8173 21.9767 42.0828 21.8622 42.3306C21.7476 42.5783 21.5791 42.8036 21.3664 42.9933C21.1536 43.1831 20.9008 43.3337 20.6224 43.4364C20.3441 43.5392 20.0456 43.5921 19.7442 43.5921V43.5844Z" fill="#AFB1B8"/>
<path d="M35.7302 39.9413V44.2069H34.8513V39.9413H35.7302ZM37.4294 41.7635V42.4491H35.49V41.7635H37.4294ZM37.6345 39.9413V40.6298H35.49V39.9413H37.6345ZM41.6482 41.9745V42.1766C41.6482 42.5009 41.6042 42.7919 41.5164 43.0497C41.4285 43.3075 41.3044 43.5272 41.1443 43.7089C40.9841 43.8885 40.7927 44.0262 40.5701 44.1219C40.3494 44.2177 40.1042 44.2655 39.8347 44.2655C39.5671 44.2655 39.322 44.2177 39.0994 44.1219C38.8787 44.0262 38.6873 43.8885 38.5251 43.7089C38.363 43.5272 38.2371 43.3075 38.1472 43.0497C38.0593 42.7919 38.0154 42.5009 38.0154 42.1766V41.9745C38.0154 41.6483 38.0593 41.3573 38.1472 41.1014C38.2351 40.8436 38.3591 40.6239 38.5193 40.4423C38.6814 40.2606 38.8728 40.1219 39.0935 40.0262C39.3162 39.9305 39.5613 39.8827 39.8289 39.8827C40.0984 39.8827 40.3435 39.9305 40.5642 40.0262C40.7869 40.1219 40.9783 40.2606 41.1384 40.4423C41.3005 40.6239 41.4255 40.8436 41.5134 41.1014C41.6033 41.3573 41.6482 41.6483 41.6482 41.9745ZM40.7605 42.1766V41.9686C40.7605 41.7421 40.74 41.5428 40.699 41.371C40.658 41.1991 40.5974 41.0546 40.5173 40.9374C40.4373 40.8202 40.3396 40.7323 40.2244 40.6737C40.1091 40.6132 39.9773 40.5829 39.8289 40.5829C39.6804 40.5829 39.5486 40.6132 39.4333 40.6737C39.3201 40.7323 39.2234 40.8202 39.1433 40.9374C39.0652 41.0546 39.0056 41.1991 38.9646 41.371C38.9236 41.5428 38.9031 41.7421 38.9031 41.9686V42.1766C38.9031 42.4012 38.9236 42.6005 38.9646 42.7743C39.0056 42.9462 39.0662 43.0917 39.1462 43.2108C39.2263 43.328 39.324 43.4169 39.4392 43.4774C39.5544 43.538 39.6863 43.5682 39.8347 43.5682C39.9832 43.5682 40.115 43.538 40.2302 43.4774C40.3455 43.4169 40.4421 43.328 40.5203 43.2108C40.5984 43.0917 40.658 42.9462 40.699 42.7743C40.74 42.6005 40.7605 42.4012 40.7605 42.1766ZM44.5017 43.0907C44.5017 43.0145 44.49 42.9462 44.4666 42.8856C44.4451 42.8231 44.4041 42.7665 44.3435 42.7157C44.283 42.663 44.198 42.6112 44.0886 42.5604C43.9792 42.5096 43.8376 42.4569 43.6638 42.4022C43.4705 42.3397 43.2869 42.2694 43.113 42.1913C42.9412 42.1132 42.7888 42.0223 42.656 41.9188C42.5251 41.8134 42.4216 41.6913 42.3455 41.5526C42.2712 41.4139 42.2341 41.2528 42.2341 41.0692C42.2341 40.8915 42.2732 40.7303 42.3513 40.5858C42.4294 40.4393 42.5388 40.3143 42.6794 40.2108C42.8201 40.1053 42.9861 40.0243 43.1775 39.9677C43.3708 39.911 43.5828 39.8827 43.8132 39.8827C44.1277 39.8827 44.4021 39.9393 44.6365 40.0526C44.8708 40.1659 45.0525 40.3212 45.1814 40.5184C45.3123 40.7157 45.3777 40.9413 45.3777 41.1952H44.5046C44.5046 41.0702 44.4783 40.9608 44.4255 40.8671C44.3748 40.7714 44.2966 40.6962 44.1912 40.6415C44.0876 40.5868 43.9568 40.5594 43.7986 40.5594C43.6462 40.5594 43.5193 40.5829 43.4177 40.6298C43.3162 40.6747 43.24 40.7362 43.1892 40.8143C43.1384 40.8905 43.113 40.9764 43.113 41.0721C43.113 41.1444 43.1306 41.2098 43.1658 41.2684C43.2029 41.327 43.2576 41.3817 43.3298 41.4325C43.4021 41.4833 43.491 41.5311 43.5964 41.576C43.7019 41.621 43.824 41.6649 43.9626 41.7079C44.1951 41.7782 44.3992 41.8573 44.575 41.9452C44.7527 42.0331 44.9011 42.1317 45.0203 42.2411C45.1394 42.3505 45.2292 42.4745 45.2898 42.6132C45.3503 42.7518 45.3806 42.9091 45.3806 43.0848C45.3806 43.2704 45.3445 43.4364 45.2722 43.5829C45.2 43.7294 45.0955 43.8534 44.9587 43.955C44.822 44.0565 44.6589 44.1337 44.4695 44.1864C44.28 44.2391 44.0681 44.2655 43.8337 44.2655C43.6228 44.2655 43.4148 44.2382 43.2097 44.1835C43.0046 44.1268 42.8181 44.0419 42.6501 43.9286C42.4841 43.8153 42.3513 43.6708 42.2517 43.495C42.1521 43.3192 42.1023 43.1112 42.1023 42.871H42.9841C42.9841 43.0038 43.0046 43.1161 43.0457 43.2079C43.0867 43.2997 43.1443 43.3739 43.2185 43.4305C43.2947 43.4872 43.3845 43.5282 43.488 43.5536C43.5935 43.579 43.7087 43.5917 43.8337 43.5917C43.9861 43.5917 44.1111 43.5702 44.2087 43.5272C44.3083 43.4843 44.3816 43.4247 44.4285 43.3485C44.4773 43.2723 44.5017 43.1864 44.5017 43.0907ZM47.8855 39.9413V44.2069H47.0095V39.9413H47.8855ZM49.198 39.9413V40.6298H45.7175V39.9413H49.198ZM52.5613 43.5214V44.2069H50.2908V43.5214H52.5613ZM50.5779 39.9413V44.2069H49.699V39.9413H50.5779ZM52.2654 41.6786V42.3466H50.2908V41.6786H52.2654ZM52.5583 39.9413V40.6298H50.2908V39.9413H52.5583ZM53.074 39.9413H54.6648C54.991 39.9413 55.2712 39.9901 55.5056 40.0878C55.7419 40.1854 55.9236 40.33 56.0505 40.5214C56.1775 40.7128 56.241 40.9481 56.241 41.2274C56.241 41.4559 56.2019 41.6522 56.1238 41.8163C56.0476 41.9784 55.9392 42.1141 55.7986 42.2235C55.6599 42.3309 55.4968 42.4169 55.3093 42.4813L55.031 42.6278H53.6482L53.6423 41.9423H54.6707C54.825 41.9423 54.9529 41.9149 55.0544 41.8602C55.156 41.8055 55.2322 41.7294 55.283 41.6317C55.3357 41.5341 55.3621 41.4208 55.3621 41.2919C55.3621 41.1552 55.3367 41.037 55.2859 40.9374C55.2351 40.8378 55.158 40.7616 55.0544 40.7089C54.9509 40.6561 54.821 40.6298 54.6648 40.6298H53.9529V44.2069H53.074V39.9413ZM55.4587 44.2069L54.4861 42.3055L55.4148 42.2997L56.3992 44.1659V44.2069H55.4587ZM60.073 42.6864H58.9861V42.0009H60.073C60.241 42.0009 60.3777 41.9735 60.4832 41.9188C60.5886 41.8622 60.6658 41.7841 60.7146 41.6844C60.7634 41.5848 60.7878 41.4725 60.7878 41.3475C60.7878 41.2206 60.7634 41.1024 60.7146 40.993C60.6658 40.8837 60.5886 40.7958 60.4832 40.7294C60.3777 40.663 60.241 40.6298 60.073 40.6298H59.2908V44.2069H58.4119V39.9413H60.073C60.407 39.9413 60.6931 40.0018 60.9314 40.1229C61.1716 40.2421 61.3552 40.4071 61.4822 40.618C61.6091 40.829 61.6726 41.0702 61.6726 41.3417C61.6726 41.6171 61.6091 41.8553 61.4822 42.0565C61.3552 42.2577 61.1716 42.413 60.9314 42.5223C60.6931 42.6317 60.407 42.6864 60.073 42.6864ZM65.1414 43.5214V44.2069H62.8708V43.5214H65.1414ZM63.158 39.9413V44.2069H62.2791V39.9413H63.158ZM64.8455 41.6786V42.3466H62.8708V41.6786H64.8455ZM65.1384 39.9413V40.6298H62.8708V39.9413H65.1384ZM67.6199 39.9413V44.2069H66.7439V39.9413H67.6199ZM68.9324 39.9413V40.6298H65.4519V39.9413H68.9324ZM72.2957 43.5214V44.2069H70.0251V43.5214H72.2957ZM70.3123 39.9413V44.2069H69.4333V39.9413H70.3123ZM71.9998 41.6786V42.3466H70.0251V41.6786H71.9998ZM72.2927 39.9413V40.6298H70.0251V39.9413H72.2927ZM72.8083 39.9413H74.3992C74.7253 39.9413 75.0056 39.9901 75.24 40.0878C75.4763 40.1854 75.658 40.33 75.7849 40.5214C75.9119 40.7128 75.9753 40.9481 75.9753 41.2274C75.9753 41.4559 75.9363 41.6522 75.8582 41.8163C75.782 41.9784 75.6736 42.1141 75.533 42.2235C75.3943 42.3309 75.2312 42.4169 75.0437 42.4813L74.7654 42.6278H73.3826L73.3767 41.9423H74.405C74.5593 41.9423 74.6873 41.9149 74.7888 41.8602C74.8904 41.8055 74.9666 41.7294 75.0173 41.6317C75.0701 41.5341 75.0964 41.4208 75.0964 41.2919C75.0964 41.1552 75.071 41.037 75.0203 40.9374C74.9695 40.8378 74.8923 40.7616 74.7888 40.7089C74.6853 40.6561 74.5554 40.6298 74.3992 40.6298H73.6873V44.2069H72.8083V39.9413ZM75.1931 44.2069L74.2205 42.3055L75.1492 42.2997L76.1335 44.1659V44.2069H75.1931ZM78.8728 43.0907C78.8728 43.0145 78.8611 42.9462 78.8376 42.8856C78.8162 42.8231 78.7751 42.7665 78.7146 42.7157C78.6541 42.663 78.5691 42.6112 78.4597 42.5604C78.3503 42.5096 78.2087 42.4569 78.0349 42.4022C77.8416 42.3397 77.658 42.2694 77.4841 42.1913C77.3123 42.1132 77.1599 42.0223 77.0271 41.9188C76.8962 41.8134 76.7927 41.6913 76.7166 41.5526C76.6423 41.4139 76.6052 41.2528 76.6052 41.0692C76.6052 40.8915 76.6443 40.7303 76.7224 40.5858C76.8005 40.4393 76.9099 40.3143 77.0505 40.2108C77.1912 40.1053 77.3572 40.0243 77.5486 39.9677C77.7419 39.911 77.9539 39.8827 78.1843 39.8827C78.4988 39.8827 78.7732 39.9393 79.0076 40.0526C79.2419 40.1659 79.4236 40.3212 79.5525 40.5184C79.6833 40.7157 79.7488 40.9413 79.7488 41.1952H78.8757C78.8757 41.0702 78.8494 40.9608 78.7966 40.8671C78.7458 40.7714 78.6677 40.6962 78.5623 40.6415C78.4587 40.5868 78.3279 40.5594 78.1697 40.5594C78.0173 40.5594 77.8904 40.5829 77.7888 40.6298C77.6873 40.6747 77.6111 40.7362 77.5603 40.8143C77.5095 40.8905 77.4841 40.9764 77.4841 41.0721C77.4841 41.1444 77.5017 41.2098 77.5369 41.2684C77.574 41.327 77.6287 41.3817 77.7009 41.4325C77.7732 41.4833 77.8621 41.5311 77.9675 41.576C78.073 41.621 78.1951 41.6649 78.3337 41.7079C78.5662 41.7782 78.7703 41.8573 78.946 41.9452C79.1238 42.0331 79.2722 42.1317 79.3914 42.2411C79.5105 42.3505 79.6003 42.4745 79.6609 42.6132C79.7214 42.7518 79.7517 42.9091 79.7517 43.0848C79.7517 43.2704 79.7156 43.4364 79.6433 43.5829C79.571 43.7294 79.4666 43.8534 79.3298 43.955C79.1931 44.0565 79.03 44.1337 78.8406 44.1864C78.6511 44.2391 78.4392 44.2655 78.2048 44.2655C77.9939 44.2655 77.7859 44.2382 77.5808 44.1835C77.3757 44.1268 77.1892 44.0419 77.0212 43.9286C76.8552 43.8153 76.7224 43.6708 76.6228 43.495C76.5232 43.3192 76.4734 43.1112 76.4734 42.871H77.3552C77.3552 43.0038 77.3757 43.1161 77.4167 43.2079C77.4578 43.2997 77.5154 43.3739 77.5896 43.4305C77.6658 43.4872 77.7556 43.5282 77.8591 43.5536C77.9646 43.579 78.0798 43.5917 78.2048 43.5917C78.3572 43.5917 78.4822 43.5702 78.5798 43.5272C78.6794 43.4843 78.7527 43.4247 78.7996 43.3485C78.8484 43.2723 78.8728 43.1864 78.8728 43.0907Z" fill="#AFB1B8"/>
</svg>
